<?xml version="1.0" standalone="no"?>
<!DOCTYPE svg PUBLIC "-//W3C//DTD SVG 20010904//EN"
 "http://www.w3.org/TR/2001/REC-SVG-20010904/DTD/svg10.dtd">
<svg version="1.0" xmlns="http://www.w3.org/2000/svg"
 width="842.000000pt" height="842.000000pt" viewBox="0 0 842.000000 842.000000"
 preserveAspectRatio="xMidYMid meet">
<metadata>
Created by potrace 1.14, written by Peter Selinger 2001-2017
</metadata>
<g transform="translate(0.000000,842.000000) scale(0.100000,-0.100000)"
fill="#000000" stroke="none">
<path d="M6830 7121 c-107 -70 -581 -371 -605 -385 -11 -6 -22 -14 -25 -17 -3
-3 -12 -9 -20 -12 -8 -4 -41 -24 -72 -45 -31 -20 -110 -71 -175 -112 -65 -41
-124 -80 -131 -87 -7 -7 -17 -13 -22 -13 -4 0 -50 -28 -102 -62 -112 -74 -133
-87 -268 -171 -58 -36 -113 -73 -122 -81 -10 -9 -24 -16 -32 -16 -8 0 -16 -4
-18 -8 -2 -6 -321 -213 -543 -352 -13 -8 -54 -34 -92 -58 -37 -24 -77 -48 -87
-55 -11 -7 -25 -16 -30 -20 -6 -5 -114 -74 -241 -154 -248 -157 -257 -163
-260 -190 -1 -10 -5 -25 -8 -33 -7 -17 -55 -201 -63 -240 -2 -14 -9 -38 -14
-55 -5 -16 -25 -92 -45 -167 -19 -76 -51 -200 -71 -275 -55 -213 -63 -246 -64
-255 0 -13 17 -9 32 6 15 14 336 228 353 235 6 2 18 10 28 19 9 8 26 20 36 26
16 9 144 94 401 265 8 6 103 68 210 139 107 71 274 181 370 244 96 64 176 115
177 114 3 -2 -16 -88 -24 -106 -3 -8 -7 -22 -9 -30 -2 -8 -24 -91 -49 -185
-25 -93 -48 -181 -51 -195 -3 -14 -12 -48 -20 -76 -8 -28 -17 -60 -19 -70 -4
-17 -17 -67 -30 -117 -3 -9 -7 -25 -9 -35 -3 -9 -14 -53 -26 -97 -12 -44 -23
-87 -25 -95 -2 -8 -23 -85 -45 -170 -23 -85 -43 -163 -45 -173 -2 -9 -6 -21
-9 -25 -3 -5 -7 -19 -10 -33 -2 -13 -46 -179 -96 -369 -51 -190 -93 -352 -94
-360 -1 -8 -6 -25 -10 -37 -4 -12 -9 -32 -11 -45 -3 -13 -11 -45 -20 -73 -17
-58 -84 -310 -89 -334 -1 -9 -8 -36 -15 -61 -8 -25 -15 -52 -16 -60 -2 -8 -4
-15 -5 -15 -1 0 -3 -7 -5 -15 -1 -8 -31 -120 -65 -249 -34 -129 -63 -241 -66
-250 -3 -15 -18 -71 -29 -114 -3 -9 -7 -25 -9 -35 -3 -9 -25 -93 -51 -187 -25
-93 -47 -177 -49 -185 -5 -25 -27 -104 -33 -120 -3 -8 -6 -18 -5 -21 1 -4 -2
-20 -7 -35 l-8 -29 538 0 c332 1 542 4 547 10 5 6 14 30 21 55 6 25 39 148 72
274 33 127 62 237 64 245 2 9 8 28 14 44 6 15 9 27 6 27 -2 0 2 18 10 40 8 22
12 40 9 40 -2 0 0 8 5 18 6 11 12 30 15 43 8 39 12 53 71 274 31 116 57 215
59 220 1 6 5 19 9 30 3 11 8 31 11 45 3 14 10 43 16 65 6 22 13 49 16 60 3 11
6 25 8 30 2 6 6 24 11 40 4 17 21 77 36 135 16 58 32 118 35 134 3 16 7 33 10
38 3 4 7 16 9 25 2 10 15 61 30 113 14 52 28 104 29 115 2 11 6 27 9 35 6 13
44 160 52 200 2 8 4 15 5 15 1 0 3 7 5 15 1 8 8 35 16 60 7 25 13 50 15 55 1
6 9 37 18 70 9 33 19 67 21 77 2 9 38 146 80 305 42 158 78 295 80 303 2 8 22
83 45 165 49 181 49 181 54 203 2 9 11 44 20 77 9 33 19 71 22 85 2 14 9 36
14 50 5 14 20 70 34 125 14 55 44 168 66 250 23 83 43 158 45 167 2 10 20 77
39 150 54 200 137 511 141 529 2 9 24 95 50 190 26 96 48 181 50 189 2 8 15
58 30 110 14 52 27 103 30 112 3 16 40 150 51 191 8 26 -4 21 -86 -32z"/>
<path d="M4874 4688 c-3 -4 -35 -28 -72 -52 -224 -145 -274 -176 -282 -176 -4
0 -10 -4 -12 -8 -1 -4 -59 -44 -128 -87 -69 -44 -129 -83 -135 -88 -5 -4 -50
-34 -100 -65 -49 -32 -138 -89 -198 -127 -59 -39 -115 -75 -125 -80 -9 -6 -56
-36 -104 -68 -49 -31 -91 -58 -95 -59 -5 -1 -17 -10 -27 -20 -11 -10 -25 -18
-32 -18 -7 0 -14 -3 -16 -8 -1 -4 -43 -33 -93 -65 -49 -31 -97 -62 -105 -67
-8 -6 -44 -29 -80 -52 -36 -23 -105 -68 -154 -100 -48 -32 -89 -58 -90 -58 -2
0 -164 -105 -216 -140 -71 -47 -92 -60 -100 -60 -6 0 -10 -4 -10 -10 0 -5 -4
-10 -10 -10 -5 0 -29 -13 -52 -29 -24 -16 -86 -57 -138 -90 -52 -34 -102 -66
-110 -71 -8 -6 -46 -31 -85 -55 -69 -45 -69 -45 -87 -112 -10 -38 -27 -102
-38 -143 -12 -41 -23 -84 -25 -95 -2 -11 -21 -78 -40 -150 -20 -71 -38 -137
-40 -145 -21 -81 -58 -221 -66 -246 -5 -17 -12 -42 -15 -55 -3 -13 -7 -35 -10
-49 -8 -36 -10 -43 -17 -60 -6 -14 -35 -124 -42 -160 -2 -8 -4 -15 -5 -15 -1
0 -3 -7 -5 -15 -18 -73 -68 -261 -76 -286 -5 -17 -12 -40 -14 -50 -2 -10 -11
-44 -19 -74 -8 -30 -13 -56 -10 -59 3 -3 497 -5 1099 -6 l1095 0 10 31 c6 17
13 40 15 50 9 40 36 140 42 154 3 8 7 22 8 30 6 28 14 63 31 119 9 31 18 67
21 80 2 13 8 31 12 40 5 9 12 34 16 56 5 22 10 45 11 50 4 11 23 82 29 105 2
8 4 15 5 15 1 0 3 7 5 15 2 8 9 35 16 60 6 25 12 51 12 58 0 6 5 12 10 12 6 0
8 3 5 6 -3 3 7 53 24 112 16 59 31 114 33 122 1 8 5 22 8 30 4 13 12 40 23 85
1 6 16 62 33 125 30 108 37 134 46 170 2 8 4 15 5 15 1 0 3 7 5 15 4 22 103
391 127 474 11 38 21 78 24 89 2 11 11 45 20 76 9 31 18 63 20 71 2 8 13 51
25 95 11 44 22 87 24 95 2 8 8 27 14 43 6 15 8 27 6 27 -3 0 2 17 10 38 12 32
71 250 80 300 2 9 4 17 5 17 1 0 3 7 5 15 2 8 33 123 69 255 36 132 66 240 66
241 1 5 -32 -2 -36 -8z"/>
</g>
</svg>
