<?xml version="1.0" encoding="utf-8"?>
<!-- Generator: Adobe Illustrator 26.2.1, SVG Export Plug-In . SVG Version: 6.00 Build 0)  -->
<svg version="1.1" id="Layer_1" xmlns="http://www.w3.org/2000/svg" xmlns:xlink="http://www.w3.org/1999/xlink" x="0px" y="0px"
	 viewBox="0 0 122.9 26.5" style="enable-background:new 0 0 122.9 26.5;" xml:space="preserve">
<style type="text/css">
	.st0{fill:#FFFFFF;}
	.st1{fill:#3395FF;}
</style>
<polygon class="st0" points="11.2,9 7.9,21.5 0,21.5 1.6,15.4 "/>
<path class="st0" d="M28.1,5.1c1.9,0,3.2,0.4,3.9,1.2c0.7,0.8,0.9,2,0.5,3.6c-0.3,1.1-0.8,2-1.6,2.8c-0.8,0.8-1.8,1.4-2.9,1.7
	c0.8,0.2,1.3,0.8,1.5,1.8l0,0.2l0.6,5.1h-3.7L25.9,16c0-0.2-0.1-0.4-0.1-0.5c-0.1-0.2-0.2-0.3-0.4-0.4c-0.3-0.2-0.6-0.2-1-0.2h-0.2
	h-2.3l-1.7,6.6h-3.5l4.3-16.4H28.1L28.1,5.1z M122.9,9.4l-4.4,6.3l-5.2,7.5l0,0l-1.2,1.7l0,0.1l0,0.1l-1,1.4h-3.4l4-5.7l-1.8-11.1
	h3.6l0.9,7.2l4.4-6.2l0.1-0.1l0.1-0.1l0.1-0.1l0.5-1.1L122.9,9.4L122.9,9.4z M92.4,10.2c0.7,0.6,1.1,1.3,1.2,2.2
	c0.2,1.1,0.1,2.2-0.2,3.2c-0.3,1.2-0.8,2.2-1.5,3.2c-0.6,0.9-1.4,1.6-2.3,2.1c-0.9,0.5-1.8,0.7-2.8,0.7c-0.7,0-1.4-0.1-2-0.5
	c-0.5-0.3-0.8-0.7-1-1.2l-0.1-0.2l-1.8,6.8h-3.4L82,13.1l0-0.1l0-0.1l0.9-3.2h3.3l-0.6,1.9l0,0.1c0.5-0.7,1.2-1.3,1.9-1.6
	c0.8-0.4,1.6-0.6,2.4-0.6C90.8,9.4,91.7,9.7,92.4,10.2L92.4,10.2z M88.3,12.1c-0.4,0-0.8,0.1-1.2,0.2c-0.4,0.1-0.7,0.4-1,0.7
	c-0.7,0.7-1.2,1.6-1.4,2.5c-0.3,1.1-0.3,1.9,0,2.5c0.3,0.6,0.9,0.9,1.7,0.9c0.8,0,1.6-0.3,2.2-0.9c0.7-0.7,1.1-1.5,1.3-2.5
	c0.3-1.1,0.3-2,0-2.6S89.1,12.1,88.3,12.1L88.3,12.1z M103.7,10c0.5,0.3,0.8,0.7,1,1.2l0.1,0.2l0.4-1.7h3.4l-3.1,11.7h-3.4l0.4-1.7
	c-0.5,0.6-1.2,1.1-1.9,1.4c-0.7,0.3-1.4,0.5-2.2,0.5c-0.9,0-1.8-0.2-2.5-0.7c-0.7-0.5-1.1-1.3-1.2-2.1c-0.2-1.1-0.1-2.1,0.2-3.2
	c0.3-1.1,0.8-2.2,1.5-3.2c0.6-0.9,1.4-1.6,2.4-2.2c0.9-0.5,1.8-0.8,2.8-0.8C102.4,9.4,103.1,9.6,103.7,10L103.7,10z M101.9,12.1
	c-0.4,0-0.8,0.1-1.2,0.2c-0.4,0.2-0.7,0.4-1,0.7c-0.7,0.7-1.2,1.6-1.4,2.6c-0.3,1.1-0.3,1.9,0,2.5c0.3,0.6,0.9,0.9,1.8,0.9
	c0.4,0,0.8-0.1,1.2-0.2s0.7-0.4,1-0.7c0.6-0.6,1-1.4,1.3-2.2l0.1-0.3c0.3-1.1,0.3-2,0-2.5C103.3,12.4,102.8,12.1,101.9,12.1
	L101.9,12.1z M81.1,9.6l0.2,0.1l-0.9,3.2c-0.5-0.3-1-0.4-1.6-0.4c-0.8,0-1.6,0.2-2.3,0.8c-0.6,0.5-1,1.1-1.2,1.8l-0.1,0.3l-1.6,6.1
	h-3.4l3.1-11.7h3.4l-0.4,1.7c0.4-0.6,1-1.1,1.6-1.4c0.7-0.4,1.4-0.6,2.2-0.6C80.5,9.5,80.8,9.5,81.1,9.6L81.1,9.6z M68.5,10.2
	c0.8,0.5,1.3,1.2,1.5,2.1c0.2,1.1,0.2,2.2-0.1,3.2c-0.3,1.2-0.8,2.3-1.6,3.2c-0.7,0.9-1.6,1.6-2.6,2.1c-1.1,0.5-2.2,0.7-3.3,0.7
	c-1.2,0-2.2-0.2-3-0.7c-0.8-0.5-1.3-1.2-1.5-2.1c-0.2-1.1-0.2-2.2,0.1-3.2c0.3-1.2,0.8-2.3,1.6-3.2c0.7-0.9,1.6-1.6,2.7-2.1
	c1.1-0.5,2.2-0.8,3.4-0.7C66.6,9.4,67.6,9.7,68.5,10.2L68.5,10.2z M64.8,12.1c-0.8,0-1.6,0.3-2.2,0.9c-0.6,0.6-1.1,1.4-1.4,2.6
	c-0.6,2.3,0,3.4,1.7,3.4c0.8,0,1.6-0.3,2.1-0.9c0.6-0.6,1-1.4,1.3-2.6c0.3-1.1,0.3-2,0-2.6C66.2,12.4,65.7,12.1,64.8,12.1L64.8,12.1
	z M57.9,9.8l-0.6,2.3l-7.5,6.7h6.1l-0.7,2.7H45l0.6-2.4l7.4-6.6h-5.7l0.7-2.7L57.9,9.8L57.9,9.8z M41,10c0.5,0.3,0.8,0.7,1,1.2
	l0.1,0.2l0.4-1.7h3.4l-3.1,11.7h-3.4l0.5-1.7c-0.5,0.6-1.1,1.1-1.8,1.4s-1.5,0.5-2.3,0.5c-0.9,0-1.7-0.2-2.5-0.7
	c-0.7-0.5-1.1-1.3-1.2-2.1c-0.2-1.1-0.1-2.1,0.2-3.2c0.3-1.1,0.8-2.2,1.5-3.2c0.6-0.9,1.4-1.6,2.4-2.2c0.9-0.5,1.8-0.8,2.8-0.8
	C39.7,9.4,40.4,9.6,41,10L41,10z M39.2,12.1c-0.4,0-0.8,0.1-1.2,0.2c-0.4,0.2-0.7,0.4-1,0.7c-0.7,0.7-1.2,1.6-1.4,2.6
	c-0.3,1.1-0.3,1.9,0,2.5s0.9,0.9,1.8,0.9c0.4,0,0.8-0.1,1.2-0.2c0.4-0.1,0.7-0.4,1-0.7c0.6-0.6,1-1.4,1.3-2.2l0.1-0.3
	c0.3-1.1,0.3-1.9,0-2.5C40.6,12.4,40.1,12.1,39.2,12.1L39.2,12.1z M26.9,7.8h-3.2l-1.1,4.3h3.2c1,0,1.8-0.2,2.4-0.5
	c0.6-0.4,1-0.9,1.1-1.6c0.2-0.7,0.1-1.3-0.3-1.6C28.5,8,27.9,7.8,26.9,7.8L26.9,7.8z"/>
<polygon class="st1" points="18.4,0 12.8,21.5 8.9,21.5 12.7,6.9 6.9,10.8 7.9,6.9 "/>
</svg>
